<svg xmlns="http://www.w3.org/2000/svg" viewBox="0 0 200 200" fill="none">
  <rect width="200" height="200" rx="44" fill="#0E0F12"/>
  <g transform="translate(100 100) scale(0.78) translate(-100 -100)">
    <defs><clipPath id="fav"><circle cx="100" cy="100" r="80"/></clipPath></defs>
    <circle cx="100" cy="100" r="80" stroke="#12B676" stroke-width="13"/>
    <g clip-path="url(#fav)">
      <g stroke="#12B676" stroke-width="4" opacity="0.6">
        <ellipse cx="100" cy="100" rx="26" ry="80"/>
        <ellipse cx="100" cy="100" rx="53" ry="80"/>
        <line x1="20" y1="62" x2="180" y2="62"/>
        <line x1="20" y1="100" x2="180" y2="100"/>
        <line x1="20" y1="138" x2="180" y2="138"/>
      </g>
      <g fill="#12B676">
        <path transform="translate(-16 2)" d="M85 32c-15 3-24 15-22 30 1 8 6 13 4 22-3 13 3 24 13 31 3 8 2 15 1 22 12-5 19-18 20-31 1-14-5-24-3-38 2-12 8-20 6-38-2-14-9-22-19-22z"/>
        <path transform="translate(16 -4)" d="M142 62c-14 1-23 13-22 28 1 11 8 18 7 30-1 14 6 24 17 26 6-12 7-27 5-41-1-10 1-17-1-26-2-10-7-19-23-17z"/>
      </g>
    </g>
  </g>
</svg>
